<svg width="24" height="25" viewBox="0 0 24 25" fill="#E7E7E7" xmlns="http://www.w3.org/2000/svg">
<path d="M6.22469 5.28557C5.83416 4.89505 5.201 4.89505 4.81047 5.28557C4.41995 5.6761 4.41995 6.30926 4.81047 6.69979L10.5852 12.4745L4.81053 18.2492C4.42001 18.6397 4.42001 19.2729 4.81053 19.6634C5.20106 20.0539 5.83422 20.0539 6.22474 19.6634L11.9994 13.8887L17.7741 19.6634C18.1646 20.0539 18.7978 20.0539 19.1883 19.6634C19.5788 19.2729 19.5788 18.6397 19.1883 18.2492L13.4136 12.4745L19.1884 6.69979C19.5789 6.30926 19.5789 5.6761 19.1884 5.28557C18.7979 4.89505 18.1647 4.89505 17.7742 5.28557L11.9994 11.0603L6.22469 5.28557Z" fill="#E7E7E7"/>
</svg>
