<svg width="16" height="16" viewBox="0 0 16 16" fill="none" xmlns="http://www.w3.org/2000/svg">
<g id="eye-close-fill" clip-path="url(#clip0_910_188)">
<path id="Vector" d="M6.75351 10.5613L6.22818 12.5213L4.94085 12.176L5.46551 10.2167C4.68016 9.92703 3.95026 9.50492 3.30751 8.96868L1.87218 10.4047L0.928846 9.46134L2.36485 8.02601C1.55423 7.05518 1.00957 5.89052 0.78418 4.64601L1.38418 4.53601C3.31033 5.9248 5.62557 6.67041 8.00018 6.66668C10.4695 6.66668 12.7542 5.87668 14.6162 4.53601L15.2162 4.64534C14.9911 5.89002 14.4467 7.05492 13.6362 8.02601L15.0715 9.46134L14.1282 10.4047L12.6928 8.96868C12.0501 9.50492 11.3202 9.92703 10.5348 10.2167L11.0595 12.1767L9.77218 12.5213L9.24685 10.5613C8.42175 10.7027 7.57861 10.7027 6.75351 10.5613Z" fill="#C3FF97"/>
</g>
<defs>
<clipPath id="clip0_910_188">
<rect width="16" height="16" fill="white"/>
</clipPath>
</defs>
</svg>
