<svg width="16" height="16" viewBox="0 0 16 16" fill="none" xmlns="http://www.w3.org/2000/svg">
<g clip-path="url(#clip0_910_7)">
<path d="M8.00016 1.33337C11.6822 1.33337 14.6668 4.31804 14.6668 8.00004C14.6668 11.682 11.6822 14.6667 8.00016 14.6667C4.31816 14.6667 1.3335 11.682 1.3335 8.00004C1.3335 4.31804 4.31816 1.33337 8.00016 1.33337ZM8.00016 2.66671C6.58567 2.66671 5.22912 3.22861 4.22893 4.2288C3.22873 5.229 2.66683 6.58555 2.66683 8.00004C2.66683 9.41453 3.22873 10.7711 4.22893 11.7713C5.22912 12.7715 6.58567 13.3334 8.00016 13.3334C9.41465 13.3334 10.7712 12.7715 11.7714 11.7713C12.7716 10.7711 13.3335 9.41453 13.3335 8.00004C13.3335 6.58555 12.7716 5.229 11.7714 4.2288C10.7712 3.22861 9.41465 2.66671 8.00016 2.66671ZM8.00016 4.66671C8.70189 4.66697 9.38563 4.88869 9.95398 5.30027C10.5223 5.71184 10.9463 6.29229 11.1655 6.95891C11.3846 7.62552 11.3879 8.34431 11.1746 9.01286C10.9614 9.6814 10.5427 10.2656 9.97801 10.6822C9.41336 11.0989 8.73162 11.3267 8.02993 11.3332C7.32824 11.3398 6.64238 11.1247 6.07007 10.7186C5.49776 10.3126 5.06819 9.73627 4.84257 9.0718C4.61694 8.40734 4.60677 7.68862 4.8135 7.01804C4.96944 7.36652 5.24035 7.65086 5.58087 7.82348C5.92139 7.99611 6.31087 8.04654 6.68413 7.96635C7.05739 7.88615 7.39178 7.68019 7.63134 7.38293C7.87091 7.08567 8.00111 6.71515 8.00016 6.33337C8.00025 6.01235 7.90763 5.69814 7.73342 5.42849C7.55922 5.15885 7.31085 4.94525 7.01816 4.81337C7.32883 4.71804 7.65816 4.66671 8.00016 4.66671Z" fill="#1A1A1A"/>
</g>
<defs>
<clipPath id="clip0_910_7">
<rect width="16" height="16" fill="white"/>
</clipPath>
</defs>
</svg>
