<svg width="40" height="40" viewBox="0 0 40 40" fill="none" xmlns="http://www.w3.org/2000/svg">
<g id="Frame 48096953">
<g id="nfc tap">
<path d="M11.6336 8.97148C12.1002 8.97148 12.5078 9.07403 12.8565 9.27912C13.2103 9.48421 13.482 9.77646 13.6717 10.1559C13.8614 10.5302 13.9563 10.9711 13.9563 11.4787V14.6704H14.5485C14.6715 14.6704 14.7664 14.6935 14.833 14.7397C14.8997 14.7807 14.9484 14.8576 14.9792 14.9704C15.0151 15.0832 15.033 15.2473 15.033 15.4626C15.033 15.6779 15.0151 15.842 14.9792 15.9548C14.9484 16.0676 14.8997 16.1445 14.833 16.1855C14.7664 16.2266 14.6715 16.2471 14.5485 16.2471H11.6721C11.549 16.2471 11.4542 16.2266 11.3875 16.1855C11.3209 16.1445 11.2696 16.0676 11.2337 15.9548C11.2029 15.842 11.1876 15.6779 11.1876 15.4626C11.1876 15.2473 11.2029 15.0832 11.2337 14.9704C11.2696 14.8576 11.3209 14.7807 11.3875 14.7397C11.4542 14.6935 11.549 14.6704 11.6721 14.6704H12.0335V11.9325C12.0335 11.5326 11.9643 11.23 11.8259 11.025C11.6875 10.8199 11.4567 10.7173 11.1337 10.7173C10.8363 10.7173 10.5543 10.8429 10.2877 11.0942C10.0211 11.3403 9.80576 11.671 9.64168 12.0863C9.48274 12.5016 9.40327 12.9451 9.40327 13.4168V14.6704H9.76474C9.88779 14.6704 9.98265 14.6935 10.0493 14.7397C10.116 14.7807 10.1647 14.8576 10.1954 14.9704C10.2313 15.0832 10.2493 15.2473 10.2493 15.4626C10.2493 15.6779 10.2313 15.842 10.1954 15.9548C10.1647 16.0676 10.116 16.1445 10.0493 16.1855C9.98265 16.2266 9.88779 16.2471 9.76474 16.2471H6.88834C6.76529 16.2471 6.67044 16.2266 6.60378 16.1855C6.53713 16.1445 6.48585 16.0676 6.44996 15.9548C6.4192 15.842 6.40382 15.6779 6.40382 15.4626C6.40382 15.2473 6.4192 15.0832 6.44996 14.9704C6.48585 14.8576 6.53713 14.7807 6.60378 14.7397C6.67044 14.6935 6.76529 14.6704 6.88834 14.6704H7.48054V10.7173H6.73453C6.61147 10.7173 6.51662 10.6968 6.44996 10.6558C6.38331 10.6148 6.33204 10.5379 6.29615 10.4251C6.26538 10.3123 6.25 10.1482 6.25 9.93285C6.25 9.7175 6.26538 9.55343 6.29615 9.44063C6.33204 9.32783 6.38331 9.25092 6.44996 9.2099C6.51662 9.16376 6.61147 9.14068 6.73453 9.14068H8.6111C8.78543 9.14068 8.90848 9.17914 8.98027 9.25605C9.05718 9.32783 9.09563 9.45088 9.09563 9.62521V10.7404C9.77243 9.56112 10.6184 8.97148 11.6336 8.97148Z" fill="#C3FF97"/>
<path d="M21.178 6.11816C21.9574 6.11816 22.7367 6.26429 23.5161 6.55654C23.6442 6.60269 23.7391 6.66934 23.8006 6.75651C23.8673 6.83854 23.9006 6.95134 23.9006 7.09491C23.9006 7.22822 23.875 7.38716 23.8237 7.57174C23.7622 7.79734 23.6852 7.95885 23.593 8.05627C23.5058 8.15369 23.4007 8.2024 23.2776 8.2024C23.2161 8.2024 23.1418 8.18958 23.0546 8.16394C22.4034 7.96398 21.8343 7.864 21.3472 7.864C20.6858 7.864 20.3551 8.28956 20.3551 9.14068V9.60214H22.747C22.9264 9.60214 23.052 9.6611 23.1238 9.77903C23.1956 9.89696 23.2315 10.1149 23.2315 10.4328C23.2315 10.7506 23.1956 10.9686 23.1238 11.0865C23.052 11.1993 22.9264 11.2557 22.747 11.2557H20.3551V14.6704H22.5162C22.6393 14.6704 22.7341 14.6935 22.8008 14.7397C22.8675 14.7807 22.9162 14.8576 22.9469 14.9704C22.9828 15.0832 23.0008 15.2473 23.0008 15.4626C23.0008 15.6779 22.9828 15.842 22.9469 15.9548C22.9162 16.0676 22.8675 16.1445 22.8008 16.1855C22.7341 16.2266 22.6393 16.2471 22.5162 16.2471H17.0249C16.9019 16.2471 16.807 16.2266 16.7404 16.1855C16.6737 16.1445 16.6224 16.0676 16.5866 15.9548C16.5558 15.842 16.5404 15.6779 16.5404 15.4626C16.5404 15.2473 16.5558 15.0832 16.5866 14.9704C16.6224 14.8576 16.6737 14.7807 16.7404 14.7397C16.807 14.6935 16.9019 14.6704 17.0249 14.6704H18.4324V11.2557H17.0249C16.8455 11.2557 16.7199 11.1993 16.6481 11.0865C16.5763 10.9686 16.5404 10.7506 16.5404 10.4328C16.5404 10.1149 16.5763 9.89696 16.6481 9.77903C16.7199 9.6611 16.8455 9.60214 17.0249 9.60214H18.4324V9.0407C18.4324 8.08703 18.6657 7.36152 19.1322 6.86418C19.6039 6.36684 20.2859 6.11816 21.178 6.11816Z" fill="#C3FF97"/>
<path d="M32.0452 8.97148C32.3631 8.97148 32.581 9.00738 32.699 9.07916C32.8169 9.15094 32.8759 9.27656 32.8759 9.45601V11.9248C32.8759 12.0991 32.7964 12.2247 32.6374 12.3016C32.4836 12.3734 32.2247 12.4093 31.8607 12.4093C31.6197 12.4093 31.4325 12.3939 31.2992 12.3632C31.171 12.3273 31.0813 12.276 31.0301 12.2094C30.9788 12.1427 30.9531 12.0478 30.9531 11.9248C30.9531 11.7094 30.8993 11.5095 30.7916 11.3249C30.6891 11.1403 30.5327 10.9942 30.3225 10.8865C30.1174 10.7737 29.8687 10.7173 29.5765 10.7173C29.2073 10.7173 28.8843 10.7994 28.6074 10.9634C28.3305 11.1224 28.1152 11.3531 27.9614 11.6556C27.8127 11.953 27.7383 12.2991 27.7383 12.6939C27.7383 13.0887 27.8127 13.4373 27.9614 13.7398C28.1152 14.0372 28.3305 14.2679 28.6074 14.432C28.8843 14.591 29.2073 14.6704 29.5765 14.6704C29.9713 14.6704 30.3738 14.6063 30.7839 14.4782C31.1992 14.35 31.6017 14.1731 31.9914 13.9475C32.0837 13.8962 32.1683 13.8706 32.2452 13.8706C32.4759 13.8706 32.6785 14.0731 32.8528 14.4782C32.9451 14.6986 32.9912 14.8858 32.9912 15.0396C32.9912 15.2703 32.881 15.4472 32.6605 15.5703C32.1837 15.8369 31.6812 16.0445 31.1531 16.1932C30.6301 16.3419 30.1046 16.4163 29.5765 16.4163C28.7971 16.4163 28.1126 16.2573 27.523 15.9394C26.9334 15.6215 26.477 15.1806 26.154 14.6166C25.8361 14.0526 25.6772 13.4117 25.6772 12.6939C25.6772 11.9761 25.8387 11.3352 26.1617 10.7712C26.4847 10.202 26.9231 9.76108 27.4769 9.44832C28.0357 9.13043 28.6587 8.97148 29.3457 8.97148C30.1764 8.97148 30.7634 9.27143 31.107 9.87132V9.45601C31.107 9.28168 31.1813 9.15863 31.33 9.08685C31.4787 9.00994 31.7171 8.97148 32.0452 8.97148Z" fill="#C3FF97"/>
<path d="M9.5417 22.6997C9.78268 22.6997 9.96726 22.7177 10.0954 22.7536C10.2288 22.7843 10.321 22.833 10.3723 22.8997C10.4236 22.9663 10.4492 23.0612 10.4492 23.1843V25.3531H13.3025C13.482 25.3531 13.6076 25.412 13.6794 25.53C13.7512 25.6479 13.7871 25.8658 13.7871 26.1837C13.7871 26.5016 13.7512 26.7195 13.6794 26.8374C13.6076 26.9502 13.482 27.0066 13.3025 27.0066H10.4492V29.1447C10.4492 29.9958 10.7799 30.4214 11.4414 30.4214C11.6772 30.4214 11.9515 30.3701 12.2643 30.2676C12.5822 30.1599 12.9513 30.0112 13.3718 29.8215C13.4846 29.7753 13.5743 29.7523 13.6409 29.7523C13.7486 29.7523 13.8486 29.7984 13.9409 29.8907C14.0332 29.9779 14.1203 30.124 14.2024 30.3291C14.2947 30.5598 14.3408 30.747 14.3408 30.8905C14.3408 31.0033 14.3126 31.0982 14.2562 31.1751C14.2049 31.2469 14.1255 31.311 14.0178 31.3674C12.9616 31.9006 12.0464 32.1672 11.2722 32.1672C10.38 32.1672 9.69808 31.9185 9.22637 31.4212C8.75979 30.9239 8.5265 30.1983 8.5265 29.2447V27.0066H7.04216C6.86271 27.0066 6.73709 26.9502 6.66531 26.8374C6.59353 26.7195 6.55764 26.5016 6.55764 26.1837C6.55764 25.8658 6.59353 25.6479 6.66531 25.53C6.73709 25.412 6.86271 25.3531 7.04216 25.3531H8.5265V23.1843C8.5265 23.0099 8.60341 22.8869 8.75723 22.8151C8.91618 22.7382 9.17767 22.6997 9.5417 22.6997Z" fill="#C3FF97"/>
<path d="M19.8936 24.7224C21.0216 24.7224 21.8369 24.966 22.3393 25.4531C22.8418 25.9402 23.0931 26.6375 23.0931 27.545V29.7677C23.0931 29.9727 23.1366 30.1343 23.2238 30.2522C23.311 30.365 23.4366 30.4214 23.6006 30.4214H23.8391C23.9621 30.4214 24.057 30.4445 24.1236 30.4906C24.1903 30.5316 24.239 30.6085 24.2698 30.7213C24.3056 30.8341 24.3236 30.9982 24.3236 31.2135C24.3236 31.4289 24.3056 31.593 24.2698 31.7058C24.239 31.8186 24.1903 31.8955 24.1236 31.9365C24.057 31.9775 23.9621 31.998 23.8391 31.998H22.9777C22.6598 31.998 22.3778 31.9339 22.1317 31.8057C21.8907 31.6724 21.7061 31.4648 21.5779 31.1828C21.1729 31.4955 20.7448 31.7391 20.2936 31.9134C19.8424 32.0826 19.3784 32.1672 18.9015 32.1672C18.3221 32.1672 17.8222 32.0698 17.4018 31.875C16.9814 31.675 16.6583 31.393 16.4327 31.029C16.2123 30.6598 16.102 30.2265 16.102 29.7292C16.102 29.0114 16.3558 28.4551 16.8634 28.0603C17.371 27.6655 18.0812 27.4681 18.9938 27.4681C19.6757 27.4681 20.4012 27.545 21.1703 27.6988V27.4758C21.1703 27.1322 21.0627 26.8784 20.8473 26.7144C20.632 26.5503 20.2525 26.4683 19.7091 26.4683C19.4066 26.4683 19.0682 26.5067 18.6939 26.5836C18.3247 26.6554 17.9581 26.7528 17.5941 26.8759C17.5069 26.9015 17.4326 26.9143 17.371 26.9143C17.2428 26.9143 17.1275 26.8682 17.0249 26.7759C16.9275 26.6785 16.8378 26.517 16.7558 26.2914C16.6788 26.0658 16.6404 25.8812 16.6404 25.7376C16.6404 25.4761 16.7583 25.3018 16.9942 25.2146C17.4505 25.0506 17.935 24.9275 18.4478 24.8455C18.9605 24.7634 19.4424 24.7224 19.8936 24.7224ZM19.1861 29.0524C18.8272 29.0524 18.5529 29.1165 18.3632 29.2447C18.1786 29.3729 18.0863 29.56 18.0863 29.8061C18.0863 30.0471 18.176 30.2317 18.3555 30.3599C18.54 30.4829 18.8041 30.5444 19.1476 30.5444C19.5014 30.5444 19.8501 30.4752 20.1936 30.3368C20.5422 30.1932 20.8678 29.9984 21.1703 29.7523V29.2601C20.4935 29.1216 19.8321 29.0524 19.1861 29.0524Z" fill="#C3FF97"/>
<path d="M30.0841 24.7224C30.7557 24.7224 31.3428 24.8865 31.8453 25.2146C32.3478 25.5428 32.7323 25.9889 32.9989 26.5529C33.2655 27.1169 33.3988 27.7475 33.3988 28.4448C33.3988 29.1421 33.2655 29.7728 32.9989 30.3368C32.7323 30.9008 32.3478 31.3469 31.8453 31.675C31.3428 32.0031 30.7557 32.1672 30.0841 32.1672C29.6841 32.1672 29.3124 32.0903 28.9689 31.9365C28.6254 31.7775 28.3229 31.5519 28.0614 31.2597V33.4054H29.3457C29.4688 33.4054 29.5637 33.426 29.6303 33.467C29.697 33.508 29.7457 33.5849 29.7764 33.6977C29.8123 33.8105 29.8303 33.9746 29.8303 34.1899C29.8303 34.4053 29.8123 34.5693 29.7764 34.6821C29.7457 34.7949 29.697 34.8718 29.6303 34.9129C29.5637 34.959 29.4688 34.9821 29.3457 34.9821H25.4695C25.3465 34.9821 25.2516 34.9616 25.185 34.9206C25.1183 34.8795 25.067 34.8026 25.0312 34.6898C25.0004 34.577 24.985 34.413 24.985 34.1976C24.985 33.9823 25.0004 33.8182 25.0312 33.7054C25.067 33.5926 25.1183 33.5131 25.185 33.467C25.2516 33.426 25.3465 33.4054 25.4695 33.4054H26.1386V26.4683H25.4695C25.3465 26.4683 25.2516 26.4478 25.185 26.4067C25.1183 26.3657 25.067 26.2888 25.0312 26.176C25.0004 26.0632 24.985 25.8991 24.985 25.6838C24.985 25.4684 25.0004 25.3044 25.0312 25.1916C25.067 25.0788 25.1183 25.0019 25.185 24.9608C25.2516 24.9147 25.3465 24.8916 25.4695 24.8916H27.2692C27.4435 24.8916 27.5666 24.9301 27.6384 25.007C27.7153 25.0788 27.7537 25.2018 27.7537 25.3762V26.0222C28.0203 25.612 28.3536 25.2941 28.7535 25.0685C29.1535 24.8378 29.597 24.7224 30.0841 24.7224ZM29.7764 26.4683C29.4483 26.4683 29.1509 26.5452 28.8843 26.699C28.6177 26.8528 28.4049 27.081 28.2459 27.3835C28.087 27.6809 28.0075 28.0346 28.0075 28.4448C28.0075 28.855 28.087 29.2113 28.2459 29.5139C28.4049 29.8112 28.6177 30.0368 28.8843 30.1907C29.1509 30.3445 29.4483 30.4214 29.7764 30.4214C30.0943 30.4214 30.3712 30.3419 30.607 30.183C30.8429 30.0189 31.0224 29.7882 31.1454 29.4908C31.2736 29.1934 31.3377 28.8447 31.3377 28.4448C31.3377 28.0449 31.2736 27.6962 31.1454 27.3989C31.0224 27.1015 30.8429 26.8733 30.607 26.7144C30.3712 26.5503 30.0943 26.4683 29.7764 26.4683Z" fill="#C3FF97"/>
</g>
<rect x="0.625" y="0.625" width="38.75" height="38.75" stroke="#C3FF97" stroke-width="1.25"/>
</g>
</svg>
