<svg width="96" height="97" viewBox="0 0 96 97" fill="none" xmlns="http://www.w3.org/2000/svg">
<g id="Property 1=Variant2">
<g id="Vector">
<path d="M48 96.2178C35.1779 96.2178 23.1254 91.2247 14.0582 82.1595C4.9931 73.0924 0 61.0378 0 48.2178C0 35.3977 4.9931 23.3432 14.0582 14.276C23.1234 5.20885 35.1779 0.217773 48 0.217773C60.8221 0.217773 72.8746 5.21087 81.9417 14.276C91.0069 23.3412 96 35.3957 96 48.2178C96 61.0399 91.0069 73.0924 81.9417 82.1595C72.8766 91.2247 60.8221 96.2178 48 96.2178ZM48 2.64161C35.8263 2.64161 24.3818 7.38222 15.7731 15.9909C7.16445 24.5995 2.42383 36.0441 2.42383 48.2178C2.42383 60.3915 7.16445 71.836 15.7731 80.4447C24.3818 89.0533 35.8263 93.7939 48 93.7939C60.1737 93.7939 71.6182 89.0533 80.2269 80.4447C88.8355 71.836 93.5762 60.3915 93.5762 48.2178C93.5762 36.0441 88.8355 24.5995 80.2269 15.9909C71.6182 7.38222 60.1737 2.64161 48 2.64161Z" fill="#C3FF97"/>
<path d="M13.7855 43.3311L7.39866 42L7.8814 39.6832C8.2167 38.0774 9.26097 37.2816 10.6405 37.5684L10.7799 37.5967C12.1433 37.8815 12.7897 39.0308 12.4564 40.6366L12.2706 41.5314L14.0844 41.9091L13.7875 43.3331L13.7855 43.3311ZM8.92769 40.8325L11.0364 41.2728L11.2364 40.3094C11.3758 39.6408 11.0425 39.154 10.4082 39.0227C9.75785 38.8874 9.26703 39.2005 9.12766 39.869L8.92769 40.8325Z" fill="#C3FF97"/>
<path d="M15.2276 37.1685L9.2145 34.6396L10.2002 32.2946C10.8284 30.7999 11.8908 30.1495 13.2219 30.709L13.3532 30.7635C14.2278 31.1311 14.6358 31.7835 14.6318 32.6177L17.403 31.9956L16.7506 33.5489L14.2924 34.0438L13.8804 35.0234L15.7932 35.8273L15.2296 37.1665L15.2276 37.1685ZM10.9132 33.7771L12.826 34.5811L13.2926 33.4701C13.537 32.8904 13.3229 32.3471 12.7412 32.1047C12.1696 31.8643 11.6242 32.0865 11.3798 32.6662L10.9132 33.7771Z" fill="#C3FF97"/>
<path d="M18.1827 30.8666L12.6624 27.4894L13.4219 26.2492L18.9421 29.6264L18.1827 30.8666Z" fill="#C3FF97"/>
<path d="M20.8974 26.8657L14.6823 24.1994L15.6478 23.0542L20.6712 25.3063L20.8651 25.0761L17.7222 20.594L18.6594 19.4831L22.4245 25.0579L20.8995 26.8677L20.8974 26.8657Z" fill="#C3FF97"/>
<path d="M23.8041 23.4217L21.4147 17.039L23.2467 15.5665L29.0275 19.2224L27.852 20.1657L26.4381 19.2426L24.3313 20.9373L24.9353 22.5108L23.8021 23.4217H23.8041ZM25.3736 18.5539L23.1962 17.1319L22.9397 17.3379L23.8748 19.7597L25.3736 18.5539Z" fill="#C3FF97"/>
<path d="M28.1429 16.0796L28.054 15.9059C27.3269 14.4758 27.4683 12.4842 29.4659 11.4683C31.0394 10.6684 32.5644 11.0663 33.4087 12.3772L32.1039 13.0397C31.6433 12.4095 30.8617 12.2782 30.08 12.6761C29.0519 13.1993 28.8539 14.2355 29.4114 15.3343C29.9628 16.4169 30.9283 16.8694 31.9867 16.3321C32.7846 15.9261 33.1764 15.209 32.9462 14.4617L34.2429 13.8032C34.7479 15.1484 34.255 16.7017 32.6028 17.542C30.5163 18.6024 28.8034 17.3864 28.1409 16.0816L28.1429 16.0796Z" fill="#C3FF97"/>
<path d="M38.1067 15.1663L37.4483 12.8011L37.1412 12.8859L34.2448 9.52487L35.6789 9.12494L37.7371 11.5892L38.0098 11.5124L38.3693 8.37557L39.7267 7.99786L39.1308 12.3325L38.8238 12.4173L39.4823 14.7826L38.1067 15.1663Z" fill="#C3FF97"/>
<path d="M46.4166 12.9384L46.3721 11.2902L44.8047 11.3327L44.7744 10.1813L46.3418 10.1389L46.2974 8.48263L47.5558 8.44829L47.6002 10.1046L49.1777 10.0622L49.208 11.2135L47.6305 11.2559L47.675 12.9041L46.4166 12.9384Z" fill="#C3FF97"/>
<path d="M53.3184 12.0336L54.6939 12.3386C54.5868 12.8234 54.8636 13.3303 55.7563 13.5283C56.5441 13.702 57.043 13.4596 57.15 12.9748C57.2409 12.5689 56.9642 12.2618 56.2088 12.0215L55.7422 11.872C54.502 11.4882 53.8536 10.5995 54.1041 9.47443C54.3727 8.26251 55.4574 7.71311 56.8673 8.02618C58.3559 8.35542 59.0649 9.37545 58.7902 10.6136L57.4045 10.3066C57.5055 9.8481 57.2591 9.36535 56.6006 9.21992C55.9684 9.08055 55.5786 9.36535 55.4857 9.78144C55.4049 10.145 55.5725 10.4904 56.1441 10.6621L56.6188 10.8136C57.9681 11.2398 58.7922 12.1124 58.5316 13.2819C58.261 14.5019 57.0894 15.0775 55.4877 14.722C53.7648 14.3403 53.0416 13.2617 53.3143 12.0336H53.3184Z" fill="#C3FF97"/>
<path d="M60.4444 12.5425L60.5232 12.3647C61.1776 10.9003 62.8137 9.75709 64.8618 10.6721C66.4717 11.3912 67.1221 12.8273 66.6353 14.3078L65.3001 13.712C65.5021 12.9566 65.1103 12.2678 64.3084 11.9103C63.256 11.4396 62.3249 11.9365 61.824 13.0616C61.3291 14.1705 61.5836 15.2067 62.6683 15.6914C63.4863 16.057 64.2882 15.9096 64.7245 15.2612L66.0515 15.8551C65.3244 17.0932 63.8054 17.6871 62.1148 16.9316C59.9778 15.9783 59.8465 13.8796 60.4444 12.5445V12.5425Z" fill="#C3FF97"/>
<path d="M65.6697 18.4104L71.2203 14.4535L73.1149 15.8432L71.0749 22.3734L69.8589 21.4826L70.3861 19.8788L68.2046 18.2791L66.8412 19.2688L65.6677 18.4084L65.6697 18.4104ZM70.778 18.671L71.5899 16.1986L71.3253 16.0047L69.2267 17.5338L70.778 18.671Z" fill="#C3FF97"/>
<path d="M71.9332 23.3307L76.6496 18.8991L77.6454 19.9595L73.8602 23.5185L75.5973 25.3667L74.6661 26.2413L71.9332 23.3347V23.3307Z" fill="#C3FF97"/>
<path d="M75.5409 27.449L80.7845 23.6578L81.6369 24.8353L76.3933 28.6266L75.5409 27.449Z" fill="#C3FF97"/>
<path d="M77.5626 30.1762L83.3697 27.3181L84.422 29.4571L80.7499 33.9816L80.8044 34.0927L85.5531 31.7558L86.1551 32.9818L80.348 35.8399L79.2875 33.6847L82.9596 29.1602L82.9051 29.0491L78.1564 31.3861L77.5605 30.1762H77.5626Z" fill="#C3FF97"/>
<path d="M83.9496 36.5267L84.1395 36.4822C85.7291 36.1167 87.6116 36.8297 88.0944 38.9303C88.4862 40.6331 87.7369 42.051 86.3088 42.5237L85.9836 41.1077C86.6482 40.8371 86.9693 40.0897 86.7714 39.2353C86.5169 38.1305 85.5393 37.6719 84.3637 37.9426C83.1275 38.2274 82.4751 39.104 82.7518 40.3058C82.8993 40.9461 83.2528 41.4188 83.7032 41.6329L84.2304 41.5117L83.8507 39.8615L84.8707 39.6272L85.6685 43.0993L84.6485 43.3336L84.5293 42.8145L83.4588 43.0609C82.463 42.7256 81.754 41.8531 81.4652 40.5987C80.9461 38.3345 82.3863 36.8862 83.9496 36.5267Z" fill="#C3FF97"/>
<path d="M65.8314 49.5568C65.8314 50.1789 65.3911 50.698 64.8033 50.8172C64.7205 50.8354 64.6337 50.8435 64.5448 50.8435H60.2526C59.5416 50.8435 58.9659 51.4191 58.9659 52.1301V56.4223C58.9659 56.8667 58.7417 57.2586 58.3983 57.4888C58.261 57.5817 58.1055 57.6484 57.9378 57.6827C57.855 57.6989 57.7681 57.709 57.6793 57.709H53.3871C52.6761 57.709 52.1004 58.2846 52.1004 58.9956V63.2878C52.1004 63.9988 51.5248 64.5745 50.8138 64.5745H46.5216C45.8106 64.5745 45.2349 63.9988 45.2349 63.2878V58.9956C45.2349 58.2846 45.8106 57.709 46.5216 57.709H50.8138C51.5248 57.709 52.1004 57.1333 52.1004 56.4223V52.1301C52.1004 51.4191 52.6761 50.8435 53.3871 50.8435H57.6793C58.3903 50.8435 58.9659 50.2678 58.9659 49.5568V43.978C58.9659 40.1948 55.9058 37.1266 52.1247 37.1125C48.3455 37.1266 45.2834 40.1948 45.2834 43.978V49.5568C45.2834 50.2678 44.7077 50.8435 43.9967 50.8435H39.7045C38.9935 50.8435 38.4179 51.4191 38.4179 52.1301V63.2878C38.4179 63.9988 37.8422 64.5745 37.1312 64.5745H32.839C32.128 64.5745 31.5524 63.9988 31.5524 63.2878V52.1301C31.5524 51.4191 32.128 50.8435 32.839 50.8435H37.1312C37.8422 50.8435 38.4179 50.2678 38.4179 49.5568V43.9537C38.4179 36.3833 44.5542 30.2469 52.1247 30.2469C59.6951 30.2469 65.8314 36.3833 65.8314 43.9537V49.5568Z" fill="#C3FF97"/>
<path d="M47.9999 78.4166C31.3481 78.4166 17.8009 64.8694 17.8009 48.2176C17.8009 31.5659 31.3481 18.0187 47.9999 18.0187C64.6516 18.0187 78.1988 31.5659 78.1988 48.2176C78.1988 64.8694 64.6516 78.4166 47.9999 78.4166ZM47.9999 19.2306C32.0167 19.2306 19.0128 32.2345 19.0128 48.2176C19.0128 64.2008 32.0167 77.2047 47.9999 77.2047C63.983 77.2047 76.9869 64.2008 76.9869 48.2176C76.9869 32.2345 63.983 19.2306 47.9999 19.2306Z" fill="#C3FF97"/>
<path d="M12.2586 68.5923L17.7244 65.1242L19.8715 68.5075L18.8535 69.1538L17.4658 66.9683L16.3064 67.7036L17.6173 69.7699L16.5993 70.4162L15.2884 68.3499L14.0381 69.1437L15.4581 71.3817L14.4401 72.0281L12.2606 68.5923H12.2586Z" fill="#C3FF97"/>
<path d="M15.5571 73.6275L19.5221 72.9448L20.4593 69.3979L21.5359 70.5755L20.8936 72.868L21.0309 73.0195L23.3598 72.5711L24.4061 73.7164L20.732 74.3486L19.7665 78.2348L18.6839 77.0512L19.3787 74.4213L19.2353 74.2638L16.6014 74.7728L15.5551 73.6275H15.5571Z" fill="#C3FF97"/>
<path d="M21.4814 79.6832L25.4121 74.478L27.3006 75.904C28.6095 76.8917 28.8822 78.1763 28.0338 79.3014L27.949 79.4145C27.1108 80.5254 25.7938 80.6204 24.487 79.6327L23.7578 79.0833L22.6408 80.5618L21.4814 79.6852V79.6832ZM25.814 76.3585L24.5152 78.0774L25.301 78.6692C25.8463 79.0812 26.428 78.9863 26.8179 78.4712C27.2178 77.94 27.1451 77.3623 26.5997 76.9503L25.814 76.3585Z" fill="#C3FF97"/>
<path d="M27.4419 83.8465L30.4414 78.1121L31.7301 78.7868L29.3224 83.39L31.5685 84.5656L30.9766 85.6967L27.4419 83.8485V83.8465Z" fill="#C3FF97"/>
<path d="M33.6348 83.5073L33.6914 83.3214C34.158 81.7863 35.7779 80.4896 37.9573 81.1541C40.1287 81.8146 40.767 83.7981 40.2984 85.3332L40.2418 85.519C39.8176 86.9107 38.2038 88.3751 35.9657 87.6924C33.7257 87.0097 33.2107 84.8989 33.6348 83.5073ZM38.8602 85.006C39.2117 83.8527 38.733 82.8084 37.5614 82.4509C36.3919 82.0954 35.4204 82.6973 35.0689 83.8506C34.7377 84.9373 35.1901 86.0381 36.3616 86.3936C37.5311 86.7491 38.531 86.0907 38.8602 85.004V85.006Z" fill="#C3FF97"/>
<path d="M41.9405 88.9402L42.498 82.4382L45.0329 82.6564C46.6488 82.7958 47.5941 83.6057 47.4709 85.0459L47.4588 85.1873C47.378 86.1326 46.8831 86.7224 46.0873 86.9728L47.5315 89.4189L45.853 89.2755L44.6269 87.088L43.5665 86.9971L43.3888 89.0634L41.9405 88.9382V88.9402ZM43.8412 83.7916L43.6635 85.8579L44.8653 85.9609C45.4914 86.0154 45.9419 85.6438 45.9964 85.0176C46.0489 84.3995 45.6692 83.9491 45.043 83.8946L43.8412 83.7916Z" fill="#C3FF97"/>
<path d="M49.2584 89.4233L50.6662 82.7538L53.0012 82.4932L55.9199 88.68L54.4212 88.8477L53.7243 87.3106L51.0359 87.6095L50.7026 89.2618L49.2584 89.4213V89.4233ZM53.1951 86.1572L52.1205 83.7879L51.7953 83.8243L51.2843 86.3693L53.1971 86.1572H53.1951Z" fill="#C3FF97"/>
<path d="M58.7558 87.8918L57.3076 82.8927L55.5624 83.3976L55.209 82.1797L60.1051 80.7617L60.4586 81.9797L58.7033 82.4867L60.1515 87.4858L58.7558 87.8898V87.8918Z" fill="#C3FF97"/>
<path d="M63.9025 86.123L61.2908 80.2007L62.6219 79.613L65.2336 85.5352L63.9025 86.123Z" fill="#C3FF97"/>
<path d="M65.7868 81.9094L65.6797 81.7458C64.8031 80.4005 64.8496 78.3281 66.7604 77.0859C68.6611 75.8478 70.592 76.6315 71.4666 77.9767L71.5737 78.1403C72.3675 79.3583 72.4523 81.5357 70.4911 82.8122C68.5298 84.0888 66.5806 83.1273 65.7868 81.9094ZM70.2911 78.8695C69.6326 77.8596 68.5257 77.5546 67.4996 78.2231C66.4756 78.8917 66.312 80.0228 66.9704 81.0328C67.5905 81.9841 68.7237 82.3457 69.7498 81.6771C70.7758 81.0085 70.9112 79.8208 70.2911 78.8695Z" fill="#C3FF97"/>
<path d="M75.3691 79.027L70.7133 74.5308L72.3696 72.8159L77.8696 74.7388L77.9565 74.6499L74.1491 70.9738L75.0984 69.9921L79.7542 74.4863L78.0858 76.2153L72.5857 74.2924L72.4988 74.3813L76.3063 78.0574L75.3711 79.027H75.3691Z" fill="#C3FF97"/>
<path d="M79.5927 71.4204L80.3481 70.2307C80.7662 70.4973 81.3378 70.4085 81.8287 69.6369C82.2609 68.9562 82.2024 68.4048 81.7822 68.1381C81.4308 67.9139 81.047 68.0715 80.5642 68.6997L80.2653 69.0875C79.4816 70.1237 78.4252 70.4287 77.4537 69.8106C76.4053 69.1461 76.2579 67.9382 77.0335 66.7182C77.8516 65.4315 79.0514 65.1124 80.1219 65.7911L79.3624 66.9888C78.9665 66.7364 78.4293 66.805 78.0677 67.3746C77.7203 67.92 77.8556 68.3846 78.2151 68.6128C78.5302 68.8128 78.912 68.7724 79.2675 68.2937L79.5705 67.8978C80.4309 66.7747 81.5318 66.298 82.5417 66.9383C83.5961 67.6089 83.7395 68.9057 82.8588 70.2913C81.9135 71.78 80.6531 72.093 79.5907 71.4184L79.5927 71.4204Z" fill="#C3FF97"/>
<path d="M83.692 54.2073L83.3041 56.1072C83.2401 56.4209 83.4425 56.7271 83.7561 56.7911L85.656 57.1791C85.9697 57.2431 86.2759 57.0407 86.34 56.727L86.7279 54.8272C86.7919 54.5135 86.5896 54.2073 86.2759 54.1432L84.376 53.7553C84.0623 53.6913 83.7561 53.8936 83.692 54.2073Z" fill="#C3FF97"/>
<path d="M11.6261 53.7549L9.72623 54.1428C9.41254 54.2069 9.21017 54.5131 9.27422 54.8268L9.66213 56.7266C9.72618 57.0403 10.0324 57.2427 10.3461 57.1786L12.246 56.7907C12.5596 56.7267 12.762 56.4205 12.698 56.1068L12.3101 54.2069C12.246 53.8932 11.9398 53.6909 11.6261 53.7549Z" fill="#C3FF97"/>
</g>
</g>
</svg>
